%TF.GenerationSoftware,KiCad,Pcbnew,7.0.2-0*%
%TF.CreationDate,2023-05-31T14:29:31-07:00*%
%TF.ProjectId,SolaraCell,536f6c61-7261-4436-956c-6c2e6b696361,rev?*%
%TF.SameCoordinates,Original*%
%TF.FileFunction,Soldermask,Top*%
%TF.FilePolarity,Negative*%
%FSLAX46Y46*%
G04 Gerber Fmt 4.6, Leading zero omitted, Abs format (unit mm)*
G04 Created by KiCad (PCBNEW 7.0.2-0) date 2023-05-31 14:29:31*
%MOMM*%
%LPD*%
G01*
G04 APERTURE LIST*
G04 Aperture macros list*
%AMRoundRect*
0 Rectangle with rounded corners*
0 $1 Rounding radius*
0 $2 $3 $4 $5 $6 $7 $8 $9 X,Y pos of 4 corners*
0 Add a 4 corners polygon primitive as box body*
4,1,4,$2,$3,$4,$5,$6,$7,$8,$9,$2,$3,0*
0 Add four circle primitives for the rounded corners*
1,1,$1+$1,$2,$3*
1,1,$1+$1,$4,$5*
1,1,$1+$1,$6,$7*
1,1,$1+$1,$8,$9*
0 Add four rect primitives between the rounded corners*
20,1,$1+$1,$2,$3,$4,$5,0*
20,1,$1+$1,$4,$5,$6,$7,0*
20,1,$1+$1,$6,$7,$8,$9,0*
20,1,$1+$1,$8,$9,$2,$3,0*%
%AMRotRect*
0 Rectangle, with rotation*
0 The origin of the aperture is its center*
0 $1 length*
0 $2 width*
0 $3 Rotation angle, in degrees counterclockwise*
0 Add horizontal line*
21,1,$1,$2,0,0,$3*%
%AMFreePoly0*
4,1,15,-0.850000,0.850000,0.850000,0.850000,0.850000,-0.425000,0.829199,-0.556332,0.768832,-0.674809,0.674809,-0.768832,0.556332,-0.829199,0.425000,-0.850000,-0.425000,-0.850000,-0.556332,-0.829199,-0.674809,-0.768832,-0.768832,-0.674809,-0.829199,-0.556332,-0.850000,-0.425000,-0.850000,0.850000,-0.850000,0.850000,$1*%
%AMFreePoly1*
4,1,19,0.500000,-0.750000,0.000000,-0.750000,0.000000,-0.744911,-0.071157,-0.744911,-0.207708,-0.704816,-0.327430,-0.627875,-0.420627,-0.520320,-0.479746,-0.390866,-0.500000,-0.250000,-0.500000,0.250000,-0.479746,0.390866,-0.420627,0.520320,-0.327430,0.627875,-0.207708,0.704816,-0.071157,0.744911,0.000000,0.744911,0.000000,0.750000,0.500000,0.750000,0.500000,-0.750000,0.500000,-0.750000,
$1*%
%AMFreePoly2*
4,1,19,0.000000,0.744911,0.071157,0.744911,0.207708,0.704816,0.327430,0.627875,0.420627,0.520320,0.479746,0.390866,0.500000,0.250000,0.500000,-0.250000,0.479746,-0.390866,0.420627,-0.520320,0.327430,-0.627875,0.207708,-0.704816,0.071157,-0.744911,0.000000,-0.744911,0.000000,-0.750000,-0.500000,-0.750000,-0.500000,0.750000,0.000000,0.750000,0.000000,0.744911,0.000000,0.744911,
$1*%
G04 Aperture macros list end*
%ADD10R,1.700000X1.700000*%
%ADD11FreePoly0,270.000000*%
%ADD12FreePoly0,90.000000*%
%ADD13RoundRect,0.250000X0.475000X-0.250000X0.475000X0.250000X-0.475000X0.250000X-0.475000X-0.250000X0*%
%ADD14RoundRect,0.250000X-0.250000X-1.500000X0.250000X-1.500000X0.250000X1.500000X-0.250000X1.500000X0*%
%ADD15RoundRect,0.250001X-0.499999X-1.449999X0.499999X-1.449999X0.499999X1.449999X-0.499999X1.449999X0*%
%ADD16RoundRect,0.250000X0.450000X-0.262500X0.450000X0.262500X-0.450000X0.262500X-0.450000X-0.262500X0*%
%ADD17RoundRect,0.243750X-0.456250X0.243750X-0.456250X-0.243750X0.456250X-0.243750X0.456250X0.243750X0*%
%ADD18R,2.100000X2.100000*%
%ADD19C,2.100000*%
%ADD20RoundRect,0.250000X-0.450000X0.262500X-0.450000X-0.262500X0.450000X-0.262500X0.450000X0.262500X0*%
%ADD21RoundRect,0.225000X0.225000X0.375000X-0.225000X0.375000X-0.225000X-0.375000X0.225000X-0.375000X0*%
%ADD22RoundRect,0.062500X0.220971X0.309359X-0.309359X-0.220971X-0.220971X-0.309359X0.309359X0.220971X0*%
%ADD23RoundRect,0.062500X-0.220971X0.309359X-0.309359X0.220971X0.220971X-0.309359X0.309359X-0.220971X0*%
%ADD24RotRect,1.600000X1.600000X225.000000*%
%ADD25FreePoly1,270.000000*%
%ADD26FreePoly2,270.000000*%
G04 APERTURE END LIST*
D10*
%TO.C,REF\u002A\u002A*%
X139700000Y-68580000D03*
D11*
X138430000Y-68580000D03*
%TD*%
D10*
%TO.C,REF\u002A\u002A*%
X139700000Y-76200000D03*
D11*
X138430000Y-76200000D03*
%TD*%
D10*
%TO.C,REF\u002A\u002A*%
X119380000Y-78740000D03*
D12*
X120650000Y-78740000D03*
%TD*%
D10*
%TO.C,REF\u002A\u002A*%
X119380000Y-76200000D03*
D12*
X120650000Y-76200000D03*
%TD*%
D13*
%TO.C,C2*%
X122809065Y-69333653D03*
X122809065Y-67433653D03*
%TD*%
D10*
%TO.C,J6*%
X139700000Y-78740000D03*
D11*
X138430000Y-78740000D03*
%TD*%
D10*
%TO.C,REF\u002A\u002A*%
X119380000Y-73660000D03*
D12*
X120650000Y-73660000D03*
%TD*%
D14*
%TO.C,J2*%
X125368723Y-72046633D03*
X127368723Y-72046633D03*
D15*
X123018723Y-77796633D03*
X129718723Y-77796633D03*
%TD*%
D10*
%TO.C,J7*%
X119380000Y-66040000D03*
D12*
X120650000Y-66040000D03*
%TD*%
D16*
%TO.C,R4*%
X132383939Y-69269356D03*
X132383939Y-67444356D03*
%TD*%
D17*
%TO.C,D3*%
X126581534Y-67424529D03*
X126581534Y-69299529D03*
%TD*%
D10*
%TO.C,REF\u002A\u002A*%
X139700000Y-66040000D03*
D11*
X138430000Y-66040000D03*
%TD*%
D18*
%TO.C,J1*%
X132811970Y-76285747D03*
D19*
X135351970Y-76285747D03*
%TD*%
D20*
%TO.C,R8*%
X134302159Y-67437851D03*
X134302159Y-69262851D03*
%TD*%
D10*
%TO.C,REF\u002A\u002A*%
X139700000Y-71120000D03*
D11*
X138430000Y-71120000D03*
%TD*%
D20*
%TO.C,R3*%
X124774476Y-67449529D03*
X124774476Y-69274529D03*
%TD*%
%TO.C,R2*%
X130416986Y-67458653D03*
X130416986Y-69283653D03*
%TD*%
D10*
%TO.C,J14*%
X119380000Y-60960000D03*
D12*
X120650000Y-60960000D03*
%TD*%
D13*
%TO.C,C1*%
X136255278Y-69347487D03*
X136255278Y-67447487D03*
%TD*%
D17*
%TO.C,D2*%
X128511986Y-67433653D03*
X128511986Y-69308653D03*
%TD*%
D21*
%TO.C,D1*%
X136559234Y-71358777D03*
X133259234Y-71358777D03*
%TD*%
D22*
%TO.C,U1*%
X130810000Y-62655660D03*
X130456447Y-62302107D03*
X130102893Y-61948553D03*
X129749340Y-61595000D03*
D23*
X128777068Y-61595000D03*
X128423515Y-61948553D03*
X128069961Y-62302107D03*
X127716408Y-62655660D03*
D22*
X127716408Y-63627932D03*
X128069961Y-63981485D03*
X128423515Y-64335039D03*
X128777068Y-64688592D03*
D23*
X129749340Y-64688592D03*
X130102893Y-64335039D03*
X130456447Y-63981485D03*
X130810000Y-63627932D03*
D24*
X129263204Y-63141796D03*
%TD*%
D10*
%TO.C,J3*%
X139700000Y-73660000D03*
D11*
X138430000Y-73660000D03*
%TD*%
D10*
%TO.C,REF\u002A\u002A*%
X119380000Y-63500000D03*
D12*
X120650000Y-63500000D03*
%TD*%
D10*
%TO.C,REF\u002A\u002A*%
X139700000Y-63500000D03*
D11*
X138430000Y-63500000D03*
%TD*%
D10*
%TO.C,J4*%
X119380000Y-68580000D03*
D12*
X120650000Y-68580000D03*
%TD*%
D25*
%TO.C,JP1*%
X134035800Y-60868800D03*
D26*
X134035800Y-62168800D03*
%TD*%
D16*
%TO.C,R1*%
X136372600Y-62456700D03*
X136372600Y-60631700D03*
%TD*%
D10*
%TO.C,REF\u002A\u002A*%
X119380000Y-71120000D03*
D12*
X120650000Y-71120000D03*
%TD*%
D10*
%TO.C,J5*%
X139700000Y-60960000D03*
D11*
X138430000Y-60960000D03*
%TD*%
D16*
%TO.C,R5*%
X124968000Y-62507500D03*
X124968000Y-60682500D03*
%TD*%
D20*
%TO.C,R6*%
X122936000Y-60682500D03*
X122936000Y-62507500D03*
%TD*%
M02*
