%TF.GenerationSoftware,KiCad,Pcbnew,7.0.2-0*%
%TF.CreationDate,2023-05-31T14:29:31-07:00*%
%TF.ProjectId,SolaraCell,536f6c61-7261-4436-956c-6c2e6b696361,rev?*%
%TF.SameCoordinates,Original*%
%TF.FileFunction,Legend,Bot*%
%TF.FilePolarity,Positive*%
%FSLAX46Y46*%
G04 Gerber Fmt 4.6, Leading zero omitted, Abs format (unit mm)*
G04 Created by KiCad (PCBNEW 7.0.2-0) date 2023-05-31 14:29:31*
%MOMM*%
%LPD*%
G01*
G04 APERTURE LIST*
%ADD10C,0.200000*%
G04 APERTURE END LIST*
D10*
X137172723Y-74176600D02*
X137029866Y-74224219D01*
X137029866Y-74224219D02*
X136791771Y-74224219D01*
X136791771Y-74224219D02*
X136696533Y-74176600D01*
X136696533Y-74176600D02*
X136648914Y-74128980D01*
X136648914Y-74128980D02*
X136601295Y-74033742D01*
X136601295Y-74033742D02*
X136601295Y-73938504D01*
X136601295Y-73938504D02*
X136648914Y-73843266D01*
X136648914Y-73843266D02*
X136696533Y-73795647D01*
X136696533Y-73795647D02*
X136791771Y-73748028D01*
X136791771Y-73748028D02*
X136982247Y-73700409D01*
X136982247Y-73700409D02*
X137077485Y-73652790D01*
X137077485Y-73652790D02*
X137125104Y-73605171D01*
X137125104Y-73605171D02*
X137172723Y-73509933D01*
X137172723Y-73509933D02*
X137172723Y-73414695D01*
X137172723Y-73414695D02*
X137125104Y-73319457D01*
X137125104Y-73319457D02*
X137077485Y-73271838D01*
X137077485Y-73271838D02*
X136982247Y-73224219D01*
X136982247Y-73224219D02*
X136744152Y-73224219D01*
X136744152Y-73224219D02*
X136601295Y-73271838D01*
X135982247Y-73224219D02*
X135791771Y-73224219D01*
X135791771Y-73224219D02*
X135696533Y-73271838D01*
X135696533Y-73271838D02*
X135601295Y-73367076D01*
X135601295Y-73367076D02*
X135553676Y-73557552D01*
X135553676Y-73557552D02*
X135553676Y-73890885D01*
X135553676Y-73890885D02*
X135601295Y-74081361D01*
X135601295Y-74081361D02*
X135696533Y-74176600D01*
X135696533Y-74176600D02*
X135791771Y-74224219D01*
X135791771Y-74224219D02*
X135982247Y-74224219D01*
X135982247Y-74224219D02*
X136077485Y-74176600D01*
X136077485Y-74176600D02*
X136172723Y-74081361D01*
X136172723Y-74081361D02*
X136220342Y-73890885D01*
X136220342Y-73890885D02*
X136220342Y-73557552D01*
X136220342Y-73557552D02*
X136172723Y-73367076D01*
X136172723Y-73367076D02*
X136077485Y-73271838D01*
X136077485Y-73271838D02*
X135982247Y-73224219D01*
X134648914Y-74224219D02*
X135125104Y-74224219D01*
X135125104Y-74224219D02*
X135125104Y-73224219D01*
X134363199Y-73938504D02*
X133887009Y-73938504D01*
X134458437Y-74224219D02*
X134125104Y-73224219D01*
X134125104Y-73224219D02*
X133791771Y-74224219D01*
X132887009Y-74224219D02*
X133220342Y-73748028D01*
X133458437Y-74224219D02*
X133458437Y-73224219D01*
X133458437Y-73224219D02*
X133077485Y-73224219D01*
X133077485Y-73224219D02*
X132982247Y-73271838D01*
X132982247Y-73271838D02*
X132934628Y-73319457D01*
X132934628Y-73319457D02*
X132887009Y-73414695D01*
X132887009Y-73414695D02*
X132887009Y-73557552D01*
X132887009Y-73557552D02*
X132934628Y-73652790D01*
X132934628Y-73652790D02*
X132982247Y-73700409D01*
X132982247Y-73700409D02*
X133077485Y-73748028D01*
X133077485Y-73748028D02*
X133458437Y-73748028D01*
X122710438Y-61327380D02*
X122758057Y-61375000D01*
X122758057Y-61375000D02*
X122900914Y-61422619D01*
X122900914Y-61422619D02*
X122996152Y-61422619D01*
X122996152Y-61422619D02*
X123139009Y-61375000D01*
X123139009Y-61375000D02*
X123234247Y-61279761D01*
X123234247Y-61279761D02*
X123281866Y-61184523D01*
X123281866Y-61184523D02*
X123329485Y-60994047D01*
X123329485Y-60994047D02*
X123329485Y-60851190D01*
X123329485Y-60851190D02*
X123281866Y-60660714D01*
X123281866Y-60660714D02*
X123234247Y-60565476D01*
X123234247Y-60565476D02*
X123139009Y-60470238D01*
X123139009Y-60470238D02*
X122996152Y-60422619D01*
X122996152Y-60422619D02*
X122900914Y-60422619D01*
X122900914Y-60422619D02*
X122758057Y-60470238D01*
X122758057Y-60470238D02*
X122710438Y-60517857D01*
X122281866Y-60898809D02*
X121948533Y-60898809D01*
X121805676Y-61422619D02*
X122281866Y-61422619D01*
X122281866Y-61422619D02*
X122281866Y-60422619D01*
X122281866Y-60422619D02*
X121805676Y-60422619D01*
X137293361Y-60473419D02*
X136721933Y-60473419D01*
X137007647Y-61473419D02*
X137007647Y-60473419D01*
X136388599Y-61473419D02*
X136388599Y-60473419D01*
X136388599Y-60949609D02*
X135817171Y-60949609D01*
X135817171Y-61473419D02*
X135817171Y-60473419D01*
X135340980Y-60949609D02*
X135007647Y-60949609D01*
X134864790Y-61473419D02*
X135340980Y-61473419D01*
X135340980Y-61473419D02*
X135340980Y-60473419D01*
X135340980Y-60473419D02*
X134864790Y-60473419D01*
X133864790Y-61473419D02*
X134198123Y-60997228D01*
X134436218Y-61473419D02*
X134436218Y-60473419D01*
X134436218Y-60473419D02*
X134055266Y-60473419D01*
X134055266Y-60473419D02*
X133960028Y-60521038D01*
X133960028Y-60521038D02*
X133912409Y-60568657D01*
X133912409Y-60568657D02*
X133864790Y-60663895D01*
X133864790Y-60663895D02*
X133864790Y-60806752D01*
X133864790Y-60806752D02*
X133912409Y-60901990D01*
X133912409Y-60901990D02*
X133960028Y-60949609D01*
X133960028Y-60949609D02*
X134055266Y-60997228D01*
X134055266Y-60997228D02*
X134436218Y-60997228D01*
X133436218Y-61473419D02*
X133436218Y-60473419D01*
X133436218Y-60473419D02*
X133102885Y-61187704D01*
X133102885Y-61187704D02*
X132769552Y-60473419D01*
X132769552Y-60473419D02*
X132769552Y-61473419D01*
X125786637Y-68118819D02*
X125453304Y-69118819D01*
X125453304Y-69118819D02*
X125119971Y-68118819D01*
X124310447Y-69118819D02*
X124786637Y-69118819D01*
X124786637Y-69118819D02*
X124786637Y-68118819D01*
X123977113Y-69118819D02*
X123977113Y-68118819D01*
X123500923Y-69118819D02*
X123500923Y-68118819D01*
X123500923Y-68118819D02*
X123119971Y-68118819D01*
X123119971Y-68118819D02*
X123024733Y-68166438D01*
X123024733Y-68166438D02*
X122977114Y-68214057D01*
X122977114Y-68214057D02*
X122929495Y-68309295D01*
X122929495Y-68309295D02*
X122929495Y-68452152D01*
X122929495Y-68452152D02*
X122977114Y-68547390D01*
X122977114Y-68547390D02*
X123024733Y-68595009D01*
X123024733Y-68595009D02*
X123119971Y-68642628D01*
X123119971Y-68642628D02*
X123500923Y-68642628D01*
X122310447Y-68118819D02*
X122119971Y-68118819D01*
X122119971Y-68118819D02*
X122024733Y-68166438D01*
X122024733Y-68166438D02*
X121929495Y-68261676D01*
X121929495Y-68261676D02*
X121881876Y-68452152D01*
X121881876Y-68452152D02*
X121881876Y-68785485D01*
X121881876Y-68785485D02*
X121929495Y-68975961D01*
X121929495Y-68975961D02*
X122024733Y-69071200D01*
X122024733Y-69071200D02*
X122119971Y-69118819D01*
X122119971Y-69118819D02*
X122310447Y-69118819D01*
X122310447Y-69118819D02*
X122405685Y-69071200D01*
X122405685Y-69071200D02*
X122500923Y-68975961D01*
X122500923Y-68975961D02*
X122548542Y-68785485D01*
X122548542Y-68785485D02*
X122548542Y-68452152D01*
X122548542Y-68452152D02*
X122500923Y-68261676D01*
X122500923Y-68261676D02*
X122405685Y-68166438D01*
X122405685Y-68166438D02*
X122310447Y-68118819D01*
X124145371Y-65578819D02*
X123954895Y-65578819D01*
X123954895Y-65578819D02*
X123859657Y-65626438D01*
X123859657Y-65626438D02*
X123764419Y-65721676D01*
X123764419Y-65721676D02*
X123716800Y-65912152D01*
X123716800Y-65912152D02*
X123716800Y-66245485D01*
X123716800Y-66245485D02*
X123764419Y-66435961D01*
X123764419Y-66435961D02*
X123859657Y-66531200D01*
X123859657Y-66531200D02*
X123954895Y-66578819D01*
X123954895Y-66578819D02*
X124145371Y-66578819D01*
X124145371Y-66578819D02*
X124240609Y-66531200D01*
X124240609Y-66531200D02*
X124335847Y-66435961D01*
X124335847Y-66435961D02*
X124383466Y-66245485D01*
X124383466Y-66245485D02*
X124383466Y-65912152D01*
X124383466Y-65912152D02*
X124335847Y-65721676D01*
X124335847Y-65721676D02*
X124240609Y-65626438D01*
X124240609Y-65626438D02*
X124145371Y-65578819D01*
X123288228Y-65578819D02*
X123288228Y-66388342D01*
X123288228Y-66388342D02*
X123240609Y-66483580D01*
X123240609Y-66483580D02*
X123192990Y-66531200D01*
X123192990Y-66531200D02*
X123097752Y-66578819D01*
X123097752Y-66578819D02*
X122907276Y-66578819D01*
X122907276Y-66578819D02*
X122812038Y-66531200D01*
X122812038Y-66531200D02*
X122764419Y-66483580D01*
X122764419Y-66483580D02*
X122716800Y-66388342D01*
X122716800Y-66388342D02*
X122716800Y-65578819D01*
X122383466Y-65578819D02*
X121812038Y-65578819D01*
X122097752Y-66578819D02*
X122097752Y-65578819D01*
X136575895Y-78402638D02*
X136671133Y-78355019D01*
X136671133Y-78355019D02*
X136813990Y-78355019D01*
X136813990Y-78355019D02*
X136956847Y-78402638D01*
X136956847Y-78402638D02*
X137052085Y-78497876D01*
X137052085Y-78497876D02*
X137099704Y-78593114D01*
X137099704Y-78593114D02*
X137147323Y-78783590D01*
X137147323Y-78783590D02*
X137147323Y-78926447D01*
X137147323Y-78926447D02*
X137099704Y-79116923D01*
X137099704Y-79116923D02*
X137052085Y-79212161D01*
X137052085Y-79212161D02*
X136956847Y-79307400D01*
X136956847Y-79307400D02*
X136813990Y-79355019D01*
X136813990Y-79355019D02*
X136718752Y-79355019D01*
X136718752Y-79355019D02*
X136575895Y-79307400D01*
X136575895Y-79307400D02*
X136528276Y-79259780D01*
X136528276Y-79259780D02*
X136528276Y-78926447D01*
X136528276Y-78926447D02*
X136718752Y-78926447D01*
X136099704Y-79355019D02*
X136099704Y-78355019D01*
X136099704Y-78355019D02*
X135528276Y-79355019D01*
X135528276Y-79355019D02*
X135528276Y-78355019D01*
X135052085Y-79355019D02*
X135052085Y-78355019D01*
X135052085Y-78355019D02*
X134813990Y-78355019D01*
X134813990Y-78355019D02*
X134671133Y-78402638D01*
X134671133Y-78402638D02*
X134575895Y-78497876D01*
X134575895Y-78497876D02*
X134528276Y-78593114D01*
X134528276Y-78593114D02*
X134480657Y-78783590D01*
X134480657Y-78783590D02*
X134480657Y-78926447D01*
X134480657Y-78926447D02*
X134528276Y-79116923D01*
X134528276Y-79116923D02*
X134575895Y-79212161D01*
X134575895Y-79212161D02*
X134671133Y-79307400D01*
X134671133Y-79307400D02*
X134813990Y-79355019D01*
X134813990Y-79355019D02*
X135052085Y-79355019D01*
M02*
